<mxfile host="app.diagrams.net" modified="2022-02-20T22:08:11.864Z" agent="5.0 (Windows NT 10.0; Win64; x64) AppleWebKit/537.36 (KHTML, like Gecko) Chrome/98.0.4758.102 Safari/537.36" etag="DJDaBWsy6tJskaz9Bfh8" version="16.6.1" type="github">
  <diagram id="6SjnHrmw7U_hnrUAdcLT" name="Page-1">
    <mxGraphModel dx="1038" dy="547" grid="0" gridSize="10" guides="1" tooltips="1" connect="1" arrows="1" fold="1" page="0" pageScale="1" pageWidth="827" pageHeight="1169" math="0" shadow="0">
      <root>
        <mxCell id="0" />
        <mxCell id="1" parent="0" />
      </root>
    </mxGraphModel>
  </diagram>
</mxfile>
